<svg width="991" height="132" viewBox="0 0 991 132" fill="none" xmlns="http://www.w3.org/2000/svg">
<path d="M736.115 74.4502C738.809 75.2832 740.613 75.8782 742.464 76.4018C751.224 78.8771 756.05 85.1127 758.064 93.7046C760.875 105.676 763.429 117.719 766.052 129.714C766.169 130.19 766.052 130.714 766.052 131.69C761.18 131.69 756.378 131.69 751.576 131.69C746.422 131.69 743.229 129.127 741.995 124.002C740.098 116.101 738.247 108.175 736.373 100.274C734.101 90.7058 727.94 85.4697 718.523 84.2083C713.229 83.5181 707.889 82.9707 702.571 82.9231C684.675 82.7565 666.802 82.9231 648.905 82.8041C645.883 82.8041 645.11 83.7323 645.157 86.7074C645.298 100.607 645.157 114.482 645.274 128.382C645.274 130.976 644.525 131.833 641.971 131.737C636.631 131.571 631.29 131.595 625.925 131.737C623.56 131.809 622.646 131.071 622.646 128.572C622.693 88.2544 622.693 47.9367 622.646 7.61906C622.646 5.42944 623.372 4.73923 625.504 4.73923C653.871 4.83443 682.262 4.73923 710.629 4.97723C720.515 5.07244 730.306 6.50045 739.629 10.2133C754.176 15.973 761.484 25.8501 761.859 40.1302C762.234 54.815 755.16 65.6203 740.941 72.094C739.582 72.7128 738.247 73.403 736.139 74.4264L736.115 74.4502ZM645.415 77.568C649.538 68.8333 656.823 67.3101 665.326 67.5005C677.858 67.7861 690.414 67.9051 702.946 67.4291C709.856 67.1673 716.907 66.2629 723.536 64.3589C734.265 61.2649 739.301 53.8154 739.137 43.4623C738.997 33.8232 733.96 27.2067 723.162 24.3744C716.673 22.6846 709.809 21.8754 703.11 21.7326C685.026 21.3756 666.942 21.6136 648.835 21.6136C647.734 21.6136 646.633 21.7088 645.438 21.7802V77.5442L645.415 77.568Z" fill="#090909"/>
<path d="M136.934 29.4201C130.563 27.4923 124.8 25.5883 118.968 24.0174C95.4257 17.639 71.5793 15.6636 47.4987 19.9C42.0173 20.852 36.4422 22.7322 31.5933 25.4455C22.3405 30.5863 22.4576 41.6296 31.851 46.4849C36.7702 49.0315 42.4624 50.5309 47.9672 51.2687C60.5931 53.0062 73.3362 53.7678 85.9855 55.3386C100.04 57.0998 114.142 58.7896 127.447 64.3113C138.27 68.8096 145.437 76.3542 146.726 88.5162C148.061 101.107 143.587 111.245 133.35 118.6C125.386 124.336 116.321 127.311 106.834 129.024C81.5582 133.57 56.4469 132.071 31.4996 126.573C22.2702 124.526 13.2049 121.86 4.02238 119.599C1.25826 118.909 0.250998 117.481 0.414971 114.53C0.672643 109.77 0.485245 104.986 0.485245 99.6547C2.12498 100.226 3.24936 100.583 4.35033 101.011C29.2508 110.579 54.9477 115.315 81.6285 114.292C92.6616 113.863 103.648 113.102 113.884 108.413C119.717 105.748 124.051 101.702 124.121 94.49C124.168 88.9446 122.013 84.3035 117.094 82.2329C110.699 79.5435 103.999 77.0206 97.2059 76.0448C82.1673 73.879 66.9412 72.927 51.8557 71.0706C43.212 69.9996 34.4745 68.8095 26.1353 66.3581C20.3728 64.6683 15.0554 61.0269 9.94883 57.6472C5.68553 54.815 3.60073 50.1501 2.38265 45.1045C-1.01394 30.8957 4.3269 18.3054 16.9294 11.4033C27.2363 5.76264 38.5036 3.33502 49.9817 2.0736C67.2223 0.193381 84.5332 0.14578 101.633 3.09701C112.549 4.97723 123.254 7.97607 134.076 10.4513C136.185 10.9273 137.075 12.0459 136.981 14.3783C136.794 19.2574 136.934 24.1602 136.934 29.3963V29.4201Z" fill="#090909"/>
<path d="M901.026 71.023C895.029 75.7592 889.196 80.3765 883.363 84.9699C878.093 89.135 872.869 93.3714 867.528 97.4413C865.795 98.7503 865.045 100.202 865.092 102.439C865.209 110.888 864.998 119.361 865.209 127.81C865.303 131.071 864.249 131.928 861.18 131.761C856.144 131.523 851.107 131.571 846.071 131.761C843.471 131.856 842.768 130.952 842.768 128.382C842.862 105.605 842.815 82.8279 842.815 60.0749C842.815 43.0577 842.815 26.0167 842.815 8.99948V5.04864H865.115V72.808C867.083 71.3562 868.231 70.5708 869.308 69.714C896.2 48.7221 923.045 27.6827 950.007 6.76225C951.436 5.66744 953.497 4.92963 955.277 4.88203C963.406 4.69163 971.511 4.78683 979.639 4.78683C980.646 4.78683 981.653 4.88203 983.668 4.97723C959.494 24.3983 936.022 43.2243 912.387 62.2169C912.855 62.3835 913.113 62.5977 913.324 62.5501C919.437 61.2173 924.333 63.3593 928.62 67.7623C942.792 82.3043 957.081 96.7511 971.323 111.245C976.992 117.005 982.684 122.741 988.353 128.501C989.126 129.286 989.852 130.143 991 131.428C989.571 131.547 988.728 131.69 987.861 131.69C980.365 131.69 972.846 131.595 965.35 131.761C962.75 131.833 960.946 130.952 959.142 129.119C941.105 110.96 923.021 92.8716 904.938 74.7596C903.719 73.522 902.431 72.3558 901.002 70.9992L901.026 71.023Z" fill="#090909"/>
<path d="M222.552 4.97723C224.027 4.90583 225.152 4.78683 226.253 4.78683C252.98 4.78683 279.731 4.76303 306.459 4.85823C317.328 4.90583 328.01 6.31005 338.106 10.6417C356.424 18.5196 363.334 34.1802 361.695 52.7682C359.727 75.1404 344.454 85.2793 327.377 88.7066C319.062 90.3726 310.465 91.0628 301.985 91.2294C284.299 91.6102 266.614 91.396 248.928 91.277C246 91.277 245.039 92.0386 245.086 95.1326C245.25 106.2 245.086 117.291 245.18 128.358C245.203 130.976 244.337 131.833 241.783 131.737C236.536 131.571 231.289 131.523 226.065 131.737C223.09 131.88 222.505 130.714 222.505 127.953C222.575 97.6555 222.552 67.3577 222.552 37.06C222.552 27.5637 222.552 18.0436 222.552 8.54727C222.552 7.42866 222.552 6.31005 222.552 4.92963V4.97723ZM245.297 85.1127C249.396 77.1158 255.651 74.3074 264.013 74.474C277.366 74.7358 290.718 74.593 304.093 74.4502C311.73 74.3788 319.272 73.4982 326.3 70.071C335.342 65.6441 339.277 58.1708 339.324 48.1271C339.371 38.1072 335.646 30.5625 326.511 26.1357C319.483 22.7322 311.987 21.685 304.327 21.6612C285.822 21.566 267.34 21.685 248.834 21.566C245.812 21.566 245.063 22.4942 245.063 25.4693C245.18 44.3667 245.133 63.2641 245.133 82.1615C245.133 83.1611 245.227 84.1607 245.297 85.1603V85.1127Z" fill="#090909"/>
<path d="M398.799 131.666C399.666 129.786 400.228 128.358 400.931 127.001C420.983 87.2548 441.081 47.5321 461.062 7.76187C462.234 5.45324 463.569 4.69163 466.028 4.71543C474.25 4.85823 482.472 4.83443 490.695 4.71543C492.709 4.69163 493.81 5.35804 494.747 7.21446C515.15 47.7225 535.6 88.183 556.05 128.667C556.448 129.453 556.705 130.309 557.268 131.69C551.365 131.69 545.954 131.761 540.542 131.69C531.547 131.523 534.288 133.237 530.001 125.169C527.753 120.956 525.785 116.577 523.466 112.412C522.904 111.412 521.358 110.365 520.257 110.365C492.077 110.246 463.92 110.293 435.74 110.246C433.913 110.246 432.999 110.984 432.226 112.578C429.533 118.195 426.768 123.812 423.911 129.357C423.442 130.286 422.458 131.571 421.709 131.595C414.26 131.761 406.787 131.69 398.823 131.69L398.799 131.666ZM516.134 99.0121C516.391 98.7741 516.626 98.5123 516.883 98.2743C504.094 72.927 491.304 47.6035 478.514 22.2562C478.162 22.3276 477.811 22.3752 477.436 22.4466C465.49 45.9851 453.543 69.5474 441.292 93.6808C443.259 93.7998 444.454 93.9188 445.625 93.9188C463.592 93.9188 481.582 93.9902 499.549 93.9188C505.593 93.895 511.496 94.0378 516.11 99.0359L516.134 99.0121Z" fill="#090909"/>
</svg>
