<svg width="362" height="448" viewBox="0 0 362 448" fill="none" xmlns="http://www.w3.org/2000/svg">
<path fill-rule="evenodd" clip-rule="evenodd" d="M200.264 1.18837L0.61804 225.27C0.262735 225.669 0.0664062 226.185 0.0664062 226.719V227.658V330.356C0.0664062 331.558 1.04122 332.533 2.24371 332.533H153.334C154.536 332.533 155.511 331.558 155.511 330.356V258.665C155.511 257.463 154.536 256.488 153.334 256.488H79.9366C78.042 256.488 77.0514 254.236 78.3318 252.839L203.494 116.334C203.862 115.933 204.067 115.408 204.067 114.863V2.63675C204.067 0.635919 201.595 -0.305547 200.264 1.18837ZM161.803 446.69L361.449 222.608C361.804 222.21 362 221.694 362 221.16V220.221V117.523C362 116.32 361.025 115.346 359.823 115.346H208.733C207.531 115.346 206.556 116.32 206.556 117.523V189.214C206.556 190.416 207.531 191.391 208.733 191.391H282.13C284.025 191.391 285.015 193.643 283.735 195.04L158.572 331.545C158.204 331.946 158 332.471 158 333.016V445.242C158 447.243 160.472 448.184 161.803 446.69Z" fill="#090909"/>
</svg>
