<svg width="1191" height="304" viewBox="0 0 1191 304" fill="none" xmlns="http://www.w3.org/2000/svg">
<path fill-rule="evenodd" clip-rule="evenodd" d="M136.107 0.498538L0.375029 152.844C0.133469 153.115 0 153.466 0 153.829V154.467V224.288C0 225.106 0.662741 225.769 1.48027 225.769H104.201C105.019 225.769 105.681 225.106 105.681 224.288V175.548C105.681 174.731 105.019 174.068 104.201 174.068H54.301C53.0129 174.068 52.3394 172.537 53.2099 171.587L138.304 78.7822C138.554 78.5092 138.693 78.1522 138.693 77.7818V1.48325C138.693 0.122947 137.012 -0.517123 136.107 0.498538ZM109.959 303.381L245.691 151.035C245.933 150.764 246.066 150.414 246.066 150.05V149.412V79.5911C246.066 78.7736 245.404 78.1109 244.586 78.1109H141.865C141.048 78.1109 140.385 78.7736 140.385 79.5911V128.331C140.385 129.149 141.048 129.811 141.865 129.811H191.765C193.054 129.811 193.727 131.343 192.857 132.292L107.763 225.097C107.513 225.37 107.374 225.727 107.374 226.098V302.396C107.374 303.756 109.054 304.397 109.959 303.381Z" fill="white"/>
<path d="M973.553 158.853C975.841 159.557 977.374 160.06 978.946 160.502C986.389 162.594 990.489 167.862 992.2 175.122C994.589 185.237 996.758 195.413 998.987 205.548C999.086 205.95 998.987 206.393 998.987 207.217C994.847 207.217 990.767 207.217 986.688 207.217C982.309 207.217 979.596 205.052 978.548 200.722C976.936 194.045 975.364 187.349 973.772 180.672C971.841 172.588 966.607 168.164 958.607 167.098C954.109 166.515 949.571 166.052 945.054 166.012C929.849 165.871 914.664 166.012 899.459 165.912C896.892 165.912 896.235 166.696 896.275 169.21C896.394 180.954 896.275 192.678 896.374 204.422C896.374 206.614 895.737 207.338 893.568 207.257C889.031 207.117 884.493 207.137 879.936 207.257C877.926 207.318 877.149 206.694 877.149 204.583C877.189 170.517 877.189 136.451 877.149 102.385C877.149 100.535 877.766 99.9515 879.577 99.9515C903.678 100.032 927.799 99.9515 951.9 100.153C960.298 100.233 968.617 101.44 976.538 104.577C988.897 109.443 995.106 117.789 995.424 129.855C995.743 142.263 989.733 151.392 977.652 156.862C976.498 157.385 975.364 157.968 973.573 158.833L973.553 158.853ZM896.494 161.488C899.996 154.107 906.186 152.82 913.41 152.981C924.057 153.222 934.725 153.323 945.372 152.921C951.243 152.7 957.233 151.935 962.865 150.327C971.98 147.712 976.259 141.418 976.12 132.67C976.001 124.526 971.722 118.935 962.547 116.542C957.034 115.114 951.203 114.431 945.511 114.31C930.147 114.008 914.783 114.209 899.399 114.209C898.464 114.209 897.529 114.29 896.514 114.35V161.467L896.494 161.488Z" fill="white"/>
<path d="M464.491 120.805C459.077 119.176 454.182 117.568 449.226 116.24C429.225 110.851 408.965 109.182 388.506 112.761C383.849 113.566 379.113 115.155 374.993 117.447C367.132 121.791 367.232 131.122 375.212 135.224C379.391 137.376 384.228 138.643 388.904 139.266C399.631 140.734 410.458 141.378 421.205 142.705C433.146 144.193 445.126 145.621 456.43 150.286C465.625 154.087 471.715 160.462 472.809 170.738C473.944 181.376 470.143 189.943 461.446 196.157C454.679 201.003 446.977 203.517 438.917 204.965C417.443 208.806 396.109 207.539 374.914 202.894C367.072 201.164 359.37 198.912 351.569 197.001C349.221 196.418 348.365 195.212 348.504 192.718C348.723 188.696 348.564 184.654 348.564 180.149C349.957 180.632 350.912 180.934 351.848 181.296C373.003 189.38 394.835 193.382 417.503 192.517C426.877 192.155 436.21 191.511 444.907 187.55C449.863 185.298 453.545 181.879 453.604 175.786C453.644 171.1 451.813 167.179 447.634 165.429C442.201 163.157 436.509 161.025 430.737 160.201C417.961 158.371 405.025 157.566 392.208 155.998C384.864 155.093 377.441 154.087 370.356 152.016C365.46 150.588 360.943 147.511 356.604 144.656C352.982 142.263 351.211 138.321 350.176 134.058C347.29 122.052 351.828 111.414 362.535 105.582C371.291 100.816 380.864 98.765 390.616 97.6992C405.263 96.1105 419.971 96.0703 434.499 98.5639C443.773 100.153 452.868 102.686 462.063 104.778C463.854 105.18 464.61 106.125 464.53 108.096C464.371 112.218 464.491 116.361 464.491 120.785V120.805Z" fill="white"/>
<path d="M1113.66 155.957C1108.56 159.959 1103.61 163.861 1098.65 167.742C1094.18 171.261 1089.74 174.84 1085.2 178.279C1083.73 179.385 1083.09 180.612 1083.13 182.502C1083.23 189.641 1083.05 196.8 1083.23 203.939C1083.31 206.694 1082.41 207.418 1079.81 207.278C1075.53 207.076 1071.25 207.117 1066.97 207.278C1064.76 207.358 1064.16 206.594 1064.16 204.422C1064.24 185.177 1064.2 165.932 1064.2 146.707C1064.2 132.328 1064.2 117.93 1064.2 103.551V100.213H1083.15V157.466C1084.82 156.239 1085.8 155.575 1086.71 154.851C1109.56 137.114 1132.37 119.337 1155.27 101.661C1156.49 100.736 1158.24 100.112 1159.75 100.072C1166.66 99.9113 1173.54 99.9917 1180.45 99.9917C1181.31 99.9917 1182.16 100.072 1183.87 100.153C1163.33 116.562 1143.39 132.469 1123.31 148.517C1123.71 148.657 1123.93 148.838 1124.11 148.798C1129.3 147.672 1133.46 149.482 1137.1 153.202C1149.14 165.489 1161.28 177.696 1173.38 189.943C1178.2 194.81 1183.04 199.656 1187.85 204.523C1188.51 205.186 1189.13 205.91 1190.1 206.996C1188.89 207.097 1188.17 207.217 1187.43 207.217C1181.07 207.217 1174.68 207.137 1168.31 207.278C1166.1 207.338 1164.57 206.594 1163.04 205.045C1147.71 189.702 1132.35 174.418 1116.98 159.115C1115.95 158.069 1114.85 157.083 1113.64 155.937L1113.66 155.957Z" fill="white"/>
<path d="M537.231 100.153C538.485 100.092 539.44 99.9917 540.375 99.9917C563.083 99.9917 585.81 99.9716 608.518 100.052C617.752 100.092 626.828 101.279 635.405 104.939C650.968 111.595 656.839 124.827 655.446 140.533C653.774 159.436 640.799 168.003 626.29 170.899C619.225 172.307 611.921 172.89 604.717 173.031C589.691 173.352 574.666 173.171 559.64 173.071C557.152 173.071 556.336 173.714 556.376 176.329C556.515 185.68 556.376 195.051 556.456 204.402C556.476 206.614 555.739 207.338 553.57 207.257C549.112 207.117 544.654 207.076 540.216 207.257C537.688 207.378 537.191 206.393 537.191 204.06C537.251 178.46 537.231 152.86 537.231 127.261C537.231 119.237 537.231 111.193 537.231 103.169C537.231 102.224 537.231 101.279 537.231 100.112V100.153ZM556.555 167.862C560.038 161.105 565.352 158.732 572.456 158.873C583.8 159.094 595.144 158.974 606.508 158.853C612.996 158.793 619.404 158.049 625.375 155.153C633.057 151.413 636.4 145.098 636.44 136.612C636.48 128.145 633.315 121.771 625.554 118.03C619.583 115.155 613.215 114.27 606.707 114.25C590.985 114.169 575.283 114.27 559.56 114.169C556.993 114.169 556.356 114.953 556.356 117.467C556.456 133.434 556.416 149.402 556.416 165.369C556.416 166.213 556.495 167.058 556.555 167.903V167.862Z" fill="white"/>
<path d="M686.97 207.197C687.706 205.608 688.184 204.402 688.781 203.256C705.817 169.672 722.892 136.109 739.868 102.505C740.864 100.555 741.998 99.9113 744.088 99.9314C751.073 100.052 758.058 100.032 765.044 99.9314C766.755 99.9113 767.691 100.474 768.487 102.043C785.821 136.27 803.195 170.457 820.569 204.663C820.908 205.327 821.127 206.051 821.604 207.217C816.589 207.217 811.992 207.278 807.394 207.217C799.752 207.076 802.081 208.524 798.439 201.707C796.528 198.148 794.856 194.448 792.886 190.928C792.409 190.084 791.095 189.199 790.16 189.199C766.218 189.098 742.296 189.139 718.355 189.098C716.803 189.098 716.026 189.722 715.37 191.069C713.081 195.815 710.733 200.561 708.305 205.246C707.907 206.031 707.071 207.117 706.434 207.137C700.105 207.278 693.757 207.217 686.99 207.217L686.97 207.197ZM786.657 179.606C786.876 179.405 787.075 179.184 787.294 178.983C776.428 157.566 765.561 136.169 754.695 114.752C754.397 114.813 754.098 114.853 753.78 114.913C743.63 134.802 733.48 154.711 723.071 175.102C724.743 175.202 725.758 175.303 726.753 175.303C742.018 175.303 757.302 175.363 772.567 175.303C777.701 175.283 782.717 175.404 786.637 179.627L786.657 179.606Z" fill="white"/>
</svg>
