<svg width="842" height="500" viewBox="0 0 842 500" fill="none" xmlns="http://www.w3.org/2000/svg">
<path fill-rule="evenodd" clip-rule="evenodd" d="M433.88 0.498538L298.148 152.844C297.906 153.115 297.773 153.466 297.773 153.829V154.467V224.288C297.773 225.106 298.436 225.769 299.253 225.769H401.974C402.792 225.769 403.454 225.106 403.454 224.288V175.548C403.454 174.731 402.792 174.068 401.974 174.068H352.074C350.786 174.068 350.112 172.537 350.983 171.587L436.077 78.7822C436.327 78.5092 436.466 78.1522 436.466 77.7818V1.48325C436.466 0.122947 434.785 -0.517123 433.88 0.498538ZM407.732 303.38L543.464 151.034C543.706 150.763 543.839 150.413 543.839 150.049V149.411V79.5901C543.839 78.7726 543.177 78.1099 542.359 78.1099H439.638C438.821 78.1099 438.158 78.7726 438.158 79.5901V128.33C438.158 129.148 438.821 129.81 439.638 129.81H489.538C490.827 129.81 491.5 131.342 490.629 132.291L405.536 225.096C405.286 225.369 405.147 225.726 405.147 226.097V302.395C405.147 303.755 406.827 304.396 407.732 303.38Z" fill="white"/>
<path d="M625.063 451.154C627.352 451.858 628.884 452.361 630.456 452.803C637.899 454.894 641.999 460.163 643.711 467.423C646.099 477.538 648.268 487.714 650.497 497.849C650.597 498.251 650.497 498.694 650.497 499.518C646.358 499.518 642.278 499.518 638.198 499.518C633.82 499.518 631.106 497.353 630.058 493.023C628.446 486.346 626.874 479.65 625.282 472.973C623.351 464.889 618.117 460.465 610.117 459.399C605.619 458.816 601.081 458.353 596.564 458.313C581.359 458.172 566.174 458.313 550.969 458.212C548.402 458.212 547.745 458.997 547.785 461.51C547.905 473.255 547.785 484.979 547.885 496.723C547.885 498.915 547.248 499.639 545.078 499.558C540.541 499.417 536.003 499.438 531.446 499.558C529.436 499.619 528.66 498.995 528.66 496.884C528.699 462.818 528.699 428.752 528.66 394.686C528.66 392.835 529.277 392.252 531.088 392.252C555.188 392.333 579.309 392.252 603.41 392.453C611.808 392.534 620.127 393.74 628.048 396.878C640.407 401.744 646.616 410.09 646.935 422.156C647.253 434.563 641.243 443.693 629.163 449.163C628.008 449.686 626.874 450.269 625.083 451.134L625.063 451.154ZM548.004 453.788C551.507 446.408 557.696 445.121 564.92 445.282C575.568 445.523 586.235 445.624 596.882 445.222C602.753 445 608.744 444.236 614.376 442.627C623.491 440.013 627.77 433.719 627.63 424.971C627.511 416.826 623.232 411.236 614.057 408.843C608.545 407.415 602.713 406.731 597.022 406.611C581.658 406.309 566.294 406.51 550.91 406.51C549.974 406.51 549.039 406.591 548.024 406.651V453.768L548.004 453.788Z" fill="white"/>
<path d="M116.001 413.106C110.588 411.477 105.692 409.868 100.736 408.541C80.7352 403.152 60.4754 401.483 40.0166 405.062C35.3596 405.867 30.6231 407.455 26.5034 409.748C18.6423 414.092 18.7418 423.422 26.7224 427.525C30.9017 429.677 35.7378 430.944 40.4146 431.567C51.1416 433.035 61.968 433.679 72.7149 435.006C84.6558 436.494 96.6365 437.922 107.941 442.587C117.135 446.388 123.225 452.763 124.32 463.039C125.454 473.677 121.653 482.244 112.956 488.458C106.189 493.304 98.4874 495.818 90.4273 497.266C68.9535 501.107 47.619 499.84 26.4238 495.194C18.5826 493.465 10.8807 491.213 3.0793 489.302C0.730917 488.719 -0.12485 487.512 0.0144613 485.019C0.233379 480.997 0.0741655 476.955 0.0741655 472.45C1.46727 472.933 2.42255 473.235 3.35792 473.596C24.5133 481.681 46.3453 485.682 69.0132 484.818C78.3868 484.456 87.7206 483.812 96.4176 479.851C101.373 477.598 105.055 474.18 105.115 468.086C105.154 463.401 103.323 459.479 99.1441 457.73C93.711 455.457 88.0192 453.326 82.2477 452.501C69.4709 450.671 56.5349 449.867 43.7183 448.298C36.3746 447.393 28.9513 446.388 21.8664 444.317C16.9706 442.889 12.4529 439.812 8.1144 436.956C4.49231 434.563 2.72107 430.622 1.68619 426.359C-1.19953 414.353 3.33802 403.715 14.0451 397.883C22.8018 393.117 32.3744 391.066 42.1262 390C56.7737 388.411 71.481 388.371 86.0091 390.865C95.2832 392.453 104.378 394.987 113.573 397.079C115.364 397.481 116.12 398.426 116.041 400.397C115.881 404.519 116.001 408.662 116.001 413.086V413.106Z" fill="white"/>
<path d="M765.17 448.258C760.075 452.26 755.12 456.161 750.164 460.042C745.686 463.562 741.248 467.141 736.711 470.58C735.238 471.686 734.601 472.913 734.641 474.803C734.74 481.942 734.561 489.101 734.74 496.24C734.82 498.995 733.924 499.719 731.317 499.578C727.038 499.377 722.76 499.417 718.481 499.578C716.272 499.659 715.675 498.895 715.675 496.723C715.754 477.478 715.715 458.233 715.715 439.008C715.715 424.629 715.715 410.23 715.715 395.852V392.514H734.661V449.766C736.333 448.54 737.308 447.876 738.223 447.152C761.07 429.415 783.877 411.638 806.784 393.962C807.998 393.037 809.749 392.413 811.262 392.373C818.168 392.212 825.054 392.293 831.96 392.293C832.815 392.293 833.671 392.373 835.383 392.453C814.844 408.863 794.903 424.77 774.822 440.817C775.22 440.958 775.439 441.139 775.618 441.099C780.812 439.973 784.972 441.783 788.614 445.503C800.654 457.79 812.794 469.997 824.895 482.244C829.711 487.11 834.547 491.957 839.363 496.823C840.02 497.487 840.637 498.211 841.612 499.297C840.398 499.397 839.681 499.518 838.945 499.518C832.576 499.518 826.188 499.438 819.82 499.578C817.61 499.639 816.078 498.895 814.546 497.346C799.221 482.002 783.857 466.719 768.493 451.415C767.459 450.37 766.364 449.384 765.15 448.238L765.17 448.258Z" fill="white"/>
<path d="M188.741 392.453C189.995 392.393 190.95 392.293 191.885 392.293C214.593 392.293 237.321 392.272 260.028 392.353C269.263 392.393 278.338 393.58 286.915 397.24C302.478 403.896 308.349 417.128 306.956 432.834C305.285 451.737 292.309 460.304 277.801 463.2C270.735 464.607 263.432 465.191 256.227 465.331C241.202 465.653 226.176 465.472 211.15 465.372C208.662 465.372 207.847 466.015 207.886 468.629C208.026 477.98 207.886 487.352 207.966 496.703C207.986 498.915 207.249 499.639 205.08 499.558C200.622 499.417 196.164 499.377 191.726 499.558C189.199 499.679 188.701 498.694 188.701 496.361C188.761 470.761 188.741 445.161 188.741 419.561C188.741 411.538 188.741 403.494 188.741 395.47C188.741 394.525 188.741 393.58 188.741 392.413V392.453ZM208.065 460.163C211.548 453.406 216.862 451.033 223.967 451.174C235.311 451.395 246.655 451.275 258.018 451.154C264.506 451.094 270.915 450.35 276.885 447.454C284.567 443.713 287.91 437.399 287.95 428.912C287.99 420.446 284.826 414.071 277.064 410.331C271.094 407.455 264.725 406.57 258.217 406.55C242.495 406.47 226.793 406.57 211.071 406.47C208.503 406.47 207.866 407.254 207.866 409.768C207.966 425.735 207.926 441.702 207.926 457.67C207.926 458.514 208.006 459.359 208.065 460.203V460.163Z" fill="white"/>
<path d="M338.48 499.498C339.217 497.909 339.694 496.703 340.291 495.556C357.327 461.973 374.403 428.41 391.379 394.806C392.374 392.856 393.508 392.212 395.598 392.232C402.583 392.353 409.569 392.333 416.554 392.232C418.266 392.212 419.201 392.775 419.997 394.344C437.331 428.571 454.705 462.757 472.08 496.964C472.418 497.628 472.637 498.352 473.114 499.518C468.099 499.518 463.502 499.578 458.905 499.518C451.263 499.377 453.591 500.825 449.949 494.008C448.038 490.449 446.367 486.748 444.396 483.229C443.919 482.384 442.605 481.5 441.67 481.5C417.728 481.399 393.807 481.439 369.865 481.399C368.313 481.399 367.537 482.022 366.88 483.37C364.591 488.116 362.243 492.862 359.815 497.547C359.417 498.332 358.581 499.417 357.944 499.438C351.615 499.578 345.267 499.518 338.5 499.518L338.48 499.498ZM438.167 471.907C438.386 471.706 438.585 471.485 438.804 471.284C427.938 449.867 417.072 428.47 406.205 407.053C405.907 407.113 405.608 407.154 405.29 407.214C395.14 427.103 384.99 447.011 374.582 467.403C376.253 467.503 377.268 467.604 378.264 467.604C393.528 467.604 408.812 467.664 424.077 467.604C429.212 467.584 434.227 467.704 438.147 471.927L438.167 471.907Z" fill="white"/>
</svg>
